<mxfile host="Electron" modified="2023-09-29T16:01:24.767Z" agent="Mozilla/5.0 (Windows NT 10.0; Win64; x64) AppleWebKit/537.36 (KHTML, like Gecko) draw.io/21.7.5 Chrome/114.0.5735.289 Electron/25.8.1 Safari/537.36" etag="0CcRYEmD2Ok33v1a0npo" version="21.7.5" type="device">
  <diagram id="54ehfs4WmmA7Fh39wg9O" name="Страница 1">
    <mxGraphModel dx="2049" dy="2375" grid="1" gridSize="10" guides="1" tooltips="1" connect="1" arrows="1" fold="1" page="1" pageScale="1" pageWidth="827" pageHeight="1169" math="0" shadow="0">
      <root>
        <mxCell id="0" />
        <mxCell id="1" parent="0" />
        <mxCell id="FVAEuLFO7a_ypMNpvuLz-67" value="main" style="shape=module;align=left;spacingLeft=20;align=center;verticalAlign=top;fillColor=none;" parent="1" vertex="1">
          <mxGeometry x="180" y="49" width="430" height="310" as="geometry" />
        </mxCell>
        <mxCell id="FVAEuLFO7a_ypMNpvuLz-63" value="ny_pizza" style="shape=module;align=left;spacingLeft=20;align=center;verticalAlign=top;fillColor=none;" parent="1" vertex="1">
          <mxGeometry x="630" y="570" width="440" height="240" as="geometry" />
        </mxCell>
        <mxCell id="FVAEuLFO7a_ypMNpvuLz-62" value="pizza" style="shape=module;align=left;spacingLeft=20;align=center;verticalAlign=top;fillColor=none;" parent="1" vertex="1">
          <mxGeometry x="660" y="-130" width="970" height="650" as="geometry" />
        </mxCell>
        <mxCell id="FVAEuLFO7a_ypMNpvuLz-1" value="Client" style="swimlane;fontStyle=1;align=center;verticalAlign=top;childLayout=stackLayout;horizontal=1;startSize=26;horizontalStack=0;resizeParent=1;resizeParentMax=0;resizeLast=0;collapsible=1;marginBottom=0;" parent="1" vertex="1">
          <mxGeometry x="300" y="109" width="160" height="52" as="geometry" />
        </mxCell>
        <mxCell id="FVAEuLFO7a_ypMNpvuLz-5" value="Pizza" style="swimlane;fontStyle=3;align=center;verticalAlign=top;childLayout=stackLayout;horizontal=1;startSize=26;horizontalStack=0;resizeParent=1;resizeParentMax=0;resizeLast=0;collapsible=1;marginBottom=0;fillColor=#B6E851;" parent="1" vertex="1">
          <mxGeometry x="940" y="130" width="160" height="86" as="geometry" />
        </mxCell>
        <mxCell id="FVAEuLFO7a_ypMNpvuLz-6" value="..." style="text;strokeColor=none;fillColor=none;align=left;verticalAlign=top;spacingLeft=4;spacingRight=4;overflow=hidden;rotatable=0;points=[[0,0.5],[1,0.5]];portConstraint=eastwest;" parent="FVAEuLFO7a_ypMNpvuLz-5" vertex="1">
          <mxGeometry y="26" width="160" height="26" as="geometry" />
        </mxCell>
        <mxCell id="FVAEuLFO7a_ypMNpvuLz-7" value="" style="line;strokeWidth=1;fillColor=none;align=left;verticalAlign=middle;spacingTop=-1;spacingLeft=3;spacingRight=3;rotatable=0;labelPosition=right;points=[];portConstraint=eastwest;" parent="FVAEuLFO7a_ypMNpvuLz-5" vertex="1">
          <mxGeometry y="52" width="160" height="8" as="geometry" />
        </mxCell>
        <mxCell id="FVAEuLFO7a_ypMNpvuLz-8" value="Prepare()" style="text;strokeColor=none;fillColor=none;align=left;verticalAlign=top;spacingLeft=4;spacingRight=4;overflow=hidden;rotatable=0;points=[[0,0.5],[1,0.5]];portConstraint=eastwest;fontStyle=2" parent="FVAEuLFO7a_ypMNpvuLz-5" vertex="1">
          <mxGeometry y="60" width="160" height="26" as="geometry" />
        </mxCell>
        <mxCell id="FVAEuLFO7a_ypMNpvuLz-9" value="Use" style="endArrow=open;endSize=12;dashed=1;html=1;" parent="1" source="FVAEuLFO7a_ypMNpvuLz-1" target="FVAEuLFO7a_ypMNpvuLz-5" edge="1">
          <mxGeometry width="160" relative="1" as="geometry">
            <mxPoint x="750" y="460" as="sourcePoint" />
            <mxPoint x="910" y="460" as="targetPoint" />
          </mxGeometry>
        </mxCell>
        <mxCell id="FVAEuLFO7a_ypMNpvuLz-10" value="PizzaStore" style="swimlane;fontStyle=1;align=center;verticalAlign=top;childLayout=stackLayout;horizontal=1;startSize=26;horizontalStack=0;resizeParent=1;resizeParentMax=0;resizeLast=0;collapsible=1;marginBottom=0;strokeColor=#82b366;fillColor=#B6E851;" parent="1" vertex="1">
          <mxGeometry x="770" y="292" width="160" height="78" as="geometry" />
        </mxCell>
        <mxCell id="FVAEuLFO7a_ypMNpvuLz-12" value="OrderPizza(type):Pizza" style="text;strokeColor=none;fillColor=none;align=left;verticalAlign=top;spacingLeft=4;spacingRight=4;overflow=hidden;rotatable=0;points=[[0,0.5],[1,0.5]];portConstraint=eastwest;" parent="FVAEuLFO7a_ypMNpvuLz-10" vertex="1">
          <mxGeometry y="26" width="160" height="26" as="geometry" />
        </mxCell>
        <mxCell id="FVAEuLFO7a_ypMNpvuLz-16" value="#CreatePizza(type):Pizza" style="text;strokeColor=none;fillColor=none;align=left;verticalAlign=top;spacingLeft=4;spacingRight=4;overflow=hidden;rotatable=0;points=[[0,0.5],[1,0.5]];portConstraint=eastwest;fontStyle=2" parent="FVAEuLFO7a_ypMNpvuLz-10" vertex="1">
          <mxGeometry y="52" width="160" height="26" as="geometry" />
        </mxCell>
        <mxCell id="FVAEuLFO7a_ypMNpvuLz-11" value="" style="endArrow=diamondThin;endFill=0;endSize=24;html=1;" parent="1" source="FVAEuLFO7a_ypMNpvuLz-10" target="FVAEuLFO7a_ypMNpvuLz-1" edge="1">
          <mxGeometry width="160" relative="1" as="geometry">
            <mxPoint x="180" y="370" as="sourcePoint" />
            <mxPoint x="340" y="370" as="targetPoint" />
          </mxGeometry>
        </mxCell>
        <mxCell id="FVAEuLFO7a_ypMNpvuLz-13" value="Use" style="endArrow=open;endSize=12;dashed=1;html=1;" parent="1" source="FVAEuLFO7a_ypMNpvuLz-10" target="FVAEuLFO7a_ypMNpvuLz-5" edge="1">
          <mxGeometry width="160" relative="1" as="geometry">
            <mxPoint x="940" y="330" as="sourcePoint" />
            <mxPoint x="1100" y="330" as="targetPoint" />
          </mxGeometry>
        </mxCell>
        <mxCell id="FVAEuLFO7a_ypMNpvuLz-14" value="NYPizzaStore" style="swimlane;fontStyle=1;align=center;verticalAlign=top;childLayout=stackLayout;horizontal=1;startSize=26;horizontalStack=0;resizeParent=1;resizeParentMax=0;resizeLast=0;collapsible=1;marginBottom=0;" parent="1" vertex="1">
          <mxGeometry x="710" y="610" width="160" height="52" as="geometry" />
        </mxCell>
        <mxCell id="FVAEuLFO7a_ypMNpvuLz-17" value="#CreatePizza(type):Pizza" style="text;strokeColor=none;fillColor=none;align=left;verticalAlign=top;spacingLeft=4;spacingRight=4;overflow=hidden;rotatable=0;points=[[0,0.5],[1,0.5]];portConstraint=eastwest;fontStyle=0" parent="FVAEuLFO7a_ypMNpvuLz-14" vertex="1">
          <mxGeometry y="26" width="160" height="26" as="geometry" />
        </mxCell>
        <mxCell id="FVAEuLFO7a_ypMNpvuLz-15" value="Extends" style="endArrow=block;endSize=16;endFill=0;html=1;" parent="1" source="FVAEuLFO7a_ypMNpvuLz-14" target="FVAEuLFO7a_ypMNpvuLz-10" edge="1">
          <mxGeometry width="160" relative="1" as="geometry">
            <mxPoint x="410" y="460" as="sourcePoint" />
            <mxPoint x="570" y="460" as="targetPoint" />
          </mxGeometry>
        </mxCell>
        <mxCell id="FVAEuLFO7a_ypMNpvuLz-18" value="CheesePizza" style="swimlane;fontStyle=1;align=center;verticalAlign=top;childLayout=stackLayout;horizontal=1;startSize=26;horizontalStack=0;resizeParent=1;resizeParentMax=0;resizeLast=0;collapsible=1;marginBottom=0;" parent="1" vertex="1">
          <mxGeometry x="1450" y="400" width="160" height="86" as="geometry" />
        </mxCell>
        <mxCell id="FVAEuLFO7a_ypMNpvuLz-19" value="..." style="text;strokeColor=none;fillColor=none;align=left;verticalAlign=top;spacingLeft=4;spacingRight=4;overflow=hidden;rotatable=0;points=[[0,0.5],[1,0.5]];portConstraint=eastwest;" parent="FVAEuLFO7a_ypMNpvuLz-18" vertex="1">
          <mxGeometry y="26" width="160" height="26" as="geometry" />
        </mxCell>
        <mxCell id="FVAEuLFO7a_ypMNpvuLz-20" value="" style="line;strokeWidth=1;fillColor=none;align=left;verticalAlign=middle;spacingTop=-1;spacingLeft=3;spacingRight=3;rotatable=0;labelPosition=right;points=[];portConstraint=eastwest;" parent="FVAEuLFO7a_ypMNpvuLz-18" vertex="1">
          <mxGeometry y="52" width="160" height="8" as="geometry" />
        </mxCell>
        <mxCell id="FVAEuLFO7a_ypMNpvuLz-21" value="Prepare()" style="text;strokeColor=none;fillColor=none;align=left;verticalAlign=top;spacingLeft=4;spacingRight=4;overflow=hidden;rotatable=0;points=[[0,0.5],[1,0.5]];portConstraint=eastwest;fontStyle=0" parent="FVAEuLFO7a_ypMNpvuLz-18" vertex="1">
          <mxGeometry y="60" width="160" height="26" as="geometry" />
        </mxCell>
        <mxCell id="FVAEuLFO7a_ypMNpvuLz-22" value="Extends" style="endArrow=block;endSize=16;endFill=0;html=1;" parent="1" source="FVAEuLFO7a_ypMNpvuLz-18" target="FVAEuLFO7a_ypMNpvuLz-5" edge="1">
          <mxGeometry width="160" relative="1" as="geometry">
            <mxPoint x="839.2162275449101" y="322" as="sourcePoint" />
            <mxPoint x="827.0006586826349" y="220" as="targetPoint" />
          </mxGeometry>
        </mxCell>
        <mxCell id="FVAEuLFO7a_ypMNpvuLz-24" value="" style="endArrow=open;endSize=12;dashed=1;html=1;" parent="1" source="FVAEuLFO7a_ypMNpvuLz-14" target="FVAEuLFO7a_ypMNpvuLz-18" edge="1">
          <mxGeometry width="160" relative="1" as="geometry">
            <mxPoint x="880.0009638554218" y="654" as="sourcePoint" />
            <mxPoint x="955.9045783132531" y="570" as="targetPoint" />
          </mxGeometry>
        </mxCell>
        <mxCell id="FVAEuLFO7a_ypMNpvuLz-25" value="PizzaIngredientFactory" style="swimlane;fontStyle=3;align=center;verticalAlign=top;childLayout=stackLayout;horizontal=1;startSize=26;horizontalStack=0;resizeParent=1;resizeParentMax=0;resizeLast=0;collapsible=1;marginBottom=0;fillColor=#B6E851;" parent="1" vertex="1">
          <mxGeometry x="1190" y="380" width="210" height="78" as="geometry" />
        </mxCell>
        <mxCell id="FVAEuLFO7a_ypMNpvuLz-26" value="CreateDough():Dough" style="text;strokeColor=none;fillColor=none;align=left;verticalAlign=top;spacingLeft=4;spacingRight=4;overflow=hidden;rotatable=0;points=[[0,0.5],[1,0.5]];portConstraint=eastwest;fontStyle=2" parent="FVAEuLFO7a_ypMNpvuLz-25" vertex="1">
          <mxGeometry y="26" width="210" height="26" as="geometry" />
        </mxCell>
        <mxCell id="FVAEuLFO7a_ypMNpvuLz-29" value="CreateCheese():Cheese" style="text;strokeColor=none;fillColor=none;align=left;verticalAlign=top;spacingLeft=4;spacingRight=4;overflow=hidden;rotatable=0;points=[[0,0.5],[1,0.5]];portConstraint=eastwest;fontStyle=2" parent="FVAEuLFO7a_ypMNpvuLz-25" vertex="1">
          <mxGeometry y="52" width="210" height="26" as="geometry" />
        </mxCell>
        <mxCell id="FVAEuLFO7a_ypMNpvuLz-30" value="" style="endArrow=diamondThin;endFill=0;endSize=24;html=1;" parent="1" source="FVAEuLFO7a_ypMNpvuLz-25" target="FVAEuLFO7a_ypMNpvuLz-18" edge="1">
          <mxGeometry width="160" relative="1" as="geometry">
            <mxPoint x="890" y="728" as="sourcePoint" />
            <mxPoint x="1050" y="728" as="targetPoint" />
          </mxGeometry>
        </mxCell>
        <mxCell id="FVAEuLFO7a_ypMNpvuLz-31" value="Cheese" style="swimlane;fontStyle=1;align=center;verticalAlign=top;childLayout=stackLayout;horizontal=1;startSize=26;horizontalStack=0;resizeParent=1;resizeParentMax=0;resizeLast=0;collapsible=1;marginBottom=0;fillColor=#B6E851;" parent="1" vertex="1">
          <mxGeometry x="880" y="-90" width="160" height="52" as="geometry" />
        </mxCell>
        <mxCell id="FVAEuLFO7a_ypMNpvuLz-32" value="ToString():string" style="text;strokeColor=none;fillColor=none;align=left;verticalAlign=top;spacingLeft=4;spacingRight=4;overflow=hidden;rotatable=0;points=[[0,0.5],[1,0.5]];portConstraint=eastwest;fontStyle=2" parent="FVAEuLFO7a_ypMNpvuLz-31" vertex="1">
          <mxGeometry y="26" width="160" height="26" as="geometry" />
        </mxCell>
        <mxCell id="FVAEuLFO7a_ypMNpvuLz-35" value="Mozarella" style="swimlane;fontStyle=1;align=center;verticalAlign=top;childLayout=stackLayout;horizontal=1;startSize=26;horizontalStack=0;resizeParent=1;resizeParentMax=0;resizeLast=0;collapsible=1;marginBottom=0;" parent="1" vertex="1">
          <mxGeometry x="1420" y="182" width="160" height="52" as="geometry" />
        </mxCell>
        <mxCell id="FVAEuLFO7a_ypMNpvuLz-36" value="ToString():string" style="text;strokeColor=none;fillColor=none;align=left;verticalAlign=top;spacingLeft=4;spacingRight=4;overflow=hidden;rotatable=0;points=[[0,0.5],[1,0.5]];portConstraint=eastwest;fontStyle=0" parent="FVAEuLFO7a_ypMNpvuLz-35" vertex="1">
          <mxGeometry y="26" width="160" height="26" as="geometry" />
        </mxCell>
        <mxCell id="FVAEuLFO7a_ypMNpvuLz-37" value="Extends" style="endArrow=block;endSize=16;endFill=0;html=1;" parent="1" source="FVAEuLFO7a_ypMNpvuLz-35" target="FVAEuLFO7a_ypMNpvuLz-31" edge="1">
          <mxGeometry width="160" relative="1" as="geometry">
            <mxPoint x="1679.9962275449102" y="532" as="sourcePoint" />
            <mxPoint x="1667.780658682635" y="430" as="targetPoint" />
          </mxGeometry>
        </mxCell>
        <mxCell id="FVAEuLFO7a_ypMNpvuLz-38" value="Dough" style="swimlane;fontStyle=1;align=center;verticalAlign=top;childLayout=stackLayout;horizontal=1;startSize=26;horizontalStack=0;resizeParent=1;resizeParentMax=0;resizeLast=0;collapsible=1;marginBottom=0;fillColor=#B6E851;" parent="1" vertex="1">
          <mxGeometry x="1210" y="-60" width="160" height="52" as="geometry" />
        </mxCell>
        <mxCell id="FVAEuLFO7a_ypMNpvuLz-39" value="ToString():string" style="text;strokeColor=none;fillColor=none;align=left;verticalAlign=top;spacingLeft=4;spacingRight=4;overflow=hidden;rotatable=0;points=[[0,0.5],[1,0.5]];portConstraint=eastwest;fontStyle=2" parent="FVAEuLFO7a_ypMNpvuLz-38" vertex="1">
          <mxGeometry y="26" width="160" height="26" as="geometry" />
        </mxCell>
        <mxCell id="FVAEuLFO7a_ypMNpvuLz-40" value="ThinCrustDough" style="swimlane;fontStyle=1;align=center;verticalAlign=top;childLayout=stackLayout;horizontal=1;startSize=26;horizontalStack=0;resizeParent=1;resizeParentMax=0;resizeLast=0;collapsible=1;marginBottom=0;" parent="1" vertex="1">
          <mxGeometry x="1400" y="49" width="160" height="52" as="geometry" />
        </mxCell>
        <mxCell id="FVAEuLFO7a_ypMNpvuLz-41" value="ToString():string" style="text;strokeColor=none;fillColor=none;align=left;verticalAlign=top;spacingLeft=4;spacingRight=4;overflow=hidden;rotatable=0;points=[[0,0.5],[1,0.5]];portConstraint=eastwest;fontStyle=0" parent="FVAEuLFO7a_ypMNpvuLz-40" vertex="1">
          <mxGeometry y="26" width="160" height="26" as="geometry" />
        </mxCell>
        <mxCell id="FVAEuLFO7a_ypMNpvuLz-42" value="Extends" style="endArrow=block;endSize=16;endFill=0;html=1;" parent="1" source="FVAEuLFO7a_ypMNpvuLz-40" target="FVAEuLFO7a_ypMNpvuLz-38" edge="1">
          <mxGeometry width="160" relative="1" as="geometry">
            <mxPoint x="1879.9962275449102" y="532" as="sourcePoint" />
            <mxPoint x="1867.780658682635" y="430" as="targetPoint" />
          </mxGeometry>
        </mxCell>
        <mxCell id="FVAEuLFO7a_ypMNpvuLz-43" value="Use" style="endArrow=open;endSize=12;dashed=1;html=1;" parent="1" source="FVAEuLFO7a_ypMNpvuLz-25" target="FVAEuLFO7a_ypMNpvuLz-31" edge="1">
          <mxGeometry width="160" relative="1" as="geometry">
            <mxPoint x="1490.0009638554218" y="474" as="sourcePoint" />
            <mxPoint x="1565.904578313253" y="390" as="targetPoint" />
          </mxGeometry>
        </mxCell>
        <mxCell id="FVAEuLFO7a_ypMNpvuLz-44" value="Use" style="endArrow=open;endSize=12;dashed=1;html=1;" parent="1" source="FVAEuLFO7a_ypMNpvuLz-25" target="FVAEuLFO7a_ypMNpvuLz-38" edge="1">
          <mxGeometry width="160" relative="1" as="geometry">
            <mxPoint x="1490.0009638554218" y="474" as="sourcePoint" />
            <mxPoint x="1565.904578313253" y="390" as="targetPoint" />
          </mxGeometry>
        </mxCell>
        <mxCell id="FVAEuLFO7a_ypMNpvuLz-45" value="" style="endArrow=diamondThin;endFill=1;endSize=24;html=1;" parent="1" source="FVAEuLFO7a_ypMNpvuLz-31" target="FVAEuLFO7a_ypMNpvuLz-5" edge="1">
          <mxGeometry width="160" relative="1" as="geometry">
            <mxPoint x="1170" y="150" as="sourcePoint" />
            <mxPoint x="1330" y="150" as="targetPoint" />
          </mxGeometry>
        </mxCell>
        <mxCell id="FVAEuLFO7a_ypMNpvuLz-46" value="" style="endArrow=diamondThin;endFill=1;endSize=24;html=1;" parent="1" source="FVAEuLFO7a_ypMNpvuLz-38" target="FVAEuLFO7a_ypMNpvuLz-5" edge="1">
          <mxGeometry width="160" relative="1" as="geometry">
            <mxPoint x="1170" y="150" as="sourcePoint" />
            <mxPoint x="1330" y="150" as="targetPoint" />
          </mxGeometry>
        </mxCell>
        <mxCell id="FVAEuLFO7a_ypMNpvuLz-47" value="NYPizzaIngredientFactory" style="swimlane;fontStyle=1;align=center;verticalAlign=top;childLayout=stackLayout;horizontal=1;startSize=26;horizontalStack=0;resizeParent=1;resizeParentMax=0;resizeLast=0;collapsible=1;marginBottom=0;" parent="1" vertex="1">
          <mxGeometry x="730" y="700" width="210" height="78" as="geometry" />
        </mxCell>
        <mxCell id="FVAEuLFO7a_ypMNpvuLz-48" value="CreateDough():Dough" style="text;strokeColor=none;fillColor=none;align=left;verticalAlign=top;spacingLeft=4;spacingRight=4;overflow=hidden;rotatable=0;points=[[0,0.5],[1,0.5]];portConstraint=eastwest;fontStyle=0" parent="FVAEuLFO7a_ypMNpvuLz-47" vertex="1">
          <mxGeometry y="26" width="210" height="26" as="geometry" />
        </mxCell>
        <mxCell id="FVAEuLFO7a_ypMNpvuLz-49" value="CreateCheese():Cheese" style="text;strokeColor=none;fillColor=none;align=left;verticalAlign=top;spacingLeft=4;spacingRight=4;overflow=hidden;rotatable=0;points=[[0,0.5],[1,0.5]];portConstraint=eastwest;fontStyle=0" parent="FVAEuLFO7a_ypMNpvuLz-47" vertex="1">
          <mxGeometry y="52" width="210" height="26" as="geometry" />
        </mxCell>
        <mxCell id="FVAEuLFO7a_ypMNpvuLz-50" value="" style="endArrow=diamondThin;endFill=1;endSize=24;html=1;" parent="1" source="FVAEuLFO7a_ypMNpvuLz-47" target="FVAEuLFO7a_ypMNpvuLz-14" edge="1">
          <mxGeometry width="160" relative="1" as="geometry">
            <mxPoint x="950" y="830" as="sourcePoint" />
            <mxPoint x="1110" y="830" as="targetPoint" />
          </mxGeometry>
        </mxCell>
        <mxCell id="FVAEuLFO7a_ypMNpvuLz-51" value="" style="endArrow=block;dashed=1;endFill=0;endSize=12;html=1;" parent="1" source="FVAEuLFO7a_ypMNpvuLz-47" target="FVAEuLFO7a_ypMNpvuLz-25" edge="1">
          <mxGeometry width="160" relative="1" as="geometry">
            <mxPoint x="1400" y="660" as="sourcePoint" />
            <mxPoint x="1560" y="660" as="targetPoint" />
          </mxGeometry>
        </mxCell>
        <mxCell id="FVAEuLFO7a_ypMNpvuLz-52" value="Use" style="endArrow=open;endSize=12;dashed=1;html=1;" parent="1" source="FVAEuLFO7a_ypMNpvuLz-47" target="FVAEuLFO7a_ypMNpvuLz-35" edge="1">
          <mxGeometry width="160" relative="1" as="geometry">
            <mxPoint x="1540" y="600" as="sourcePoint" />
            <mxPoint x="1700" y="600" as="targetPoint" />
            <Array as="points">
              <mxPoint x="1080" y="400" />
            </Array>
          </mxGeometry>
        </mxCell>
        <mxCell id="FVAEuLFO7a_ypMNpvuLz-53" value="Use" style="endArrow=open;endSize=12;dashed=1;html=1;" parent="1" source="FVAEuLFO7a_ypMNpvuLz-47" target="FVAEuLFO7a_ypMNpvuLz-40" edge="1">
          <mxGeometry width="160" relative="1" as="geometry">
            <mxPoint x="1540" y="600" as="sourcePoint" />
            <mxPoint x="1700" y="600" as="targetPoint" />
            <Array as="points">
              <mxPoint x="1050" y="340" />
            </Array>
          </mxGeometry>
        </mxCell>
        <mxCell id="FVAEuLFO7a_ypMNpvuLz-54" value="Main" style="swimlane;fontStyle=1;align=center;verticalAlign=top;childLayout=stackLayout;horizontal=1;startSize=26;horizontalStack=0;resizeParent=1;resizeParentMax=0;resizeLast=0;collapsible=1;marginBottom=0;" parent="1" vertex="1">
          <mxGeometry x="340" y="269" width="160" height="52" as="geometry" />
        </mxCell>
        <mxCell id="FVAEuLFO7a_ypMNpvuLz-55" value="Run()" style="text;strokeColor=none;fillColor=none;align=left;verticalAlign=top;spacingLeft=4;spacingRight=4;overflow=hidden;rotatable=0;points=[[0,0.5],[1,0.5]];portConstraint=eastwest;" parent="FVAEuLFO7a_ypMNpvuLz-54" vertex="1">
          <mxGeometry y="26" width="160" height="26" as="geometry" />
        </mxCell>
        <mxCell id="FVAEuLFO7a_ypMNpvuLz-58" value="Use" style="endArrow=open;endSize=12;dashed=1;html=1;" parent="1" source="FVAEuLFO7a_ypMNpvuLz-54" target="FVAEuLFO7a_ypMNpvuLz-14" edge="1">
          <mxGeometry width="160" relative="1" as="geometry">
            <mxPoint x="690" y="650" as="sourcePoint" />
            <mxPoint x="850" y="650" as="targetPoint" />
          </mxGeometry>
        </mxCell>
        <mxCell id="FVAEuLFO7a_ypMNpvuLz-59" value="Use" style="endArrow=open;endSize=12;dashed=1;html=1;exitX=0.5;exitY=0;exitDx=0;exitDy=0;" parent="1" source="FVAEuLFO7a_ypMNpvuLz-54" target="FVAEuLFO7a_ypMNpvuLz-1" edge="1">
          <mxGeometry width="160" relative="1" as="geometry">
            <mxPoint x="830" y="659" as="sourcePoint" />
            <mxPoint x="990" y="659" as="targetPoint" />
          </mxGeometry>
        </mxCell>
      </root>
    </mxGraphModel>
  </diagram>
</mxfile>
